{"title":"Selma.2014.DVDScr.XVID.AC3.HQ.Hive-CM8","uid":11675571,"size":1949737499,"categoryP":"video","categoryS":"movies","magnet":"?xt=urn:btih:14408b670922ac41822bd1d75f84443ab2a0ce27&amp;dn=Selma.2014.DVDScr.XVID.AC3.HQ.Hive-CM8&amp;tr=udp%3A%2F%2Ftracker.openbittorrent.com%3A80&amp;tr=udp%3A%2F%2Fopen.demonii.com%3A1337&amp;tr=udp%3A%2F%2Ftracker.coppersurfer.tk%3A6969&amp;tr=udp%3A%2F%2Fexodus.desync.com%3A6969","seeders":13,"leechers":2,"uploader":"TvTeam","files":4,"time":1422848671,"description":" &lt;a href=&quot;https://www.torrenting.com&quot; rel=&quot;nofollow&quot; target=&quot;_NEW&quot;&gt;https://www.torrenting.com&lt;/a&gt;\n\nSign up is OPEN - for time being. Come and have fun.\n---------------------------------------------------------------------\n\n.[center][IMG]http://img661.imageshack.us/img661/8217/mg2YjY.jpg[/IMG]\n\n\n[color=blue][size=3][b]Selma.2014.DVDScr.XVID.AC3.HQ.Hive-CM8[/b][/size][/color]\n\nThx Hive\n\nCM8 Doing It Right The First Time\n\n\nSource: DVDScr, thx m8\n\nNotes:\n\nhad to redo this great movie,it needed fixing a lot\nvideo was a bit dark, milky and low of colours\nwas rather complicated to fix , but turned out nice.\n\nEncode:\n\nremoved watermarks, added brightness saturation ,fixed rgb,contrast,black base and white base, and added sharpness\ngot very nice and will do me till retail\nenjoy\n\n\nVideo: 720x304 @bitrate 1700 2pass\nAudio: English AC3 2.0 Stereo\nSample: yes included\n\n\nPS: Big hero  6 is next\n\n\n &lt;a href=&quot;\nhttp://www.imdb.com/title/tt1020072/&quot; rel=&quot;nofollow&quot; target=&quot;_NEW&quot;&gt;\nhttp://www.imdb.com/title/tt1020072/&lt;/a&gt;\n\n\nGeneral\nComplete name                  : Selma.2014.DVDScr.XVID.AC3.HQ.Hive-CM8.avi\nFormat                         : AVI\nFormat/Info                    : Audio Video Interleave\nFile size                      : 1.80 GiB\nDuration                       : 2h 8mn\nOverall bit rate               : 2 009 Kbps\nWriting application            : Nandub v1.0rc2\nWriting library                : Nandub build 1853/release\n\nVideo\nID                             : 0\nFormat                         : MPEG-4 Visual\nFormat profile                 : Advanced Simple@L5\nFormat settings, BVOP          : 2\nFormat settings, QPel          : Yes\nFormat settings, GMC           : No warppoints\nFormat settings, Matrix        : Default (H.263)\nMuxing mode                    : Packed bitstream\nCodec ID                       : XVID\nCodec ID/Hint                  : XviD\nDuration                       : 2h 8mn\nBit rate                       : 1 741 Kbps\nWidth                          : 720 pixels\nHeight                         : 304 pixels\nDisplay aspect ratio           : 2.35:1\nFrame rate                     : 29.970 fps\nColor space                    : YUV\nChroma subsampling             : 4:2:0\nBit depth                      : 8 bits\nScan type                      : Progressive\nCompression mode               : Lossy\nBits/(Pixel*Frame)             : 0.265\nStream size                    : 1.56 GiB (87%)\nWriting library                : XviD 1.2.1 (UTC 2008-12-04)\n\nAudio\nID                             : 1\nFormat                         : AC-3\nFormat/Info                    : Audio Coding 3\nMode extension                 : CM (complete main)\nFormat settings, Endianness    : Big\nCodec ID                       : 2000\nDuration                       : 2h 8mn\nBit rate mode                  : Constant\nBit rate                       : 256 Kbps\nChannel(s)                     : 2 channels\nChannel positions              : Front: L R\nSampling rate                  : 48.0 KHz\nBit depth                      : 16 bits\nCompression mode               : Lossy\nStream size                    : 235 MiB (13%)\nAlignment                      : Split accross interleaves\nInterleave, duration           : 33 ms (1.00 video frame)\nInterleave, preload duration   : 500 ms\n\n\n\nPlot:\n\nThe unforgettable true story chronicles the tumultuous three-month period in 1965, \nwhen Dr. Martin Luther King, Jr. led a dangerous campaign to secure equal voting rights \nin the face of violent opposition. The epic march from Selma to Montgomery culminated in \nPresident Johnson signing the Voting Rights Act of 1965, one of the most significant victories for the civil rights movement.\n\n\nCast:\n\nDavid Oyelowo ... Martin Luther King Jr.\nCarmen Ejogo  ... Coretta Scott King\nJim France    ... Gunnar Jahn \nOprah Winfrey ... Annie Lee Cooper \nTim Roth      ... Gov. George Wallace  \nCuba Gooding Jr. ... Fred Gray \n\n\n[img]http://img538.imageshack.us/img538/2395/GjBO8E.png[/img]\n[img]http://img538.imageshack.us/img538/1918/LfDT41.png[/img]\n[img]http://img901.imageshack.us/img901/6093/G2sQAB.png[/img]\n[img]http://img905.imageshack.us/img905/2749/NIGu6n.png[/img]\n[img]http://img909.imageshack.us/img909/6455/oJ3GLd.png[/img]\n[img]http://img537.imageshack.us/img537/1471/TotWuI.png[/img]\n[img]http://img910.imageshack.us/img910/6493/yFpVV3.png[/img]\n\n\n\nSiMPLE\nViSiON,SceneLovers,PRESTiGE,SANTi,YanKeeS,COPYxRIGHT,THC,\nLKRG,Kingstoner,REsuRRecTioN,FooKaS,ACAB,Unevano,BigVik,Rapeseed,SAFC,\ngoldadvance,KaN1vE,Pinnz,Wayne,SeeN,jtr,ICONiK,TED\nMr Hive,and most P2P \nGreat Work Guys :D\n\nLOOKING FOR ANYTHING YOU WANT TO LOOK AND SOUND BETTER\n\nCOME FIND US \n&lt;a class=&quot;__cf_email__&quot; href=&quot;/cdn-cgi/l/email-protection&quot; data-cfemail=&quot;abe8e693ebc3ded8c3c6cac2c785c6ce&quot;&gt;[email&amp;#160;protected]&lt;/a&gt;&lt;script cf-hash='f9e31' type=&quot;text/javascript&quot;&gt;\n/* &lt;![CDATA[ */!function(){try{var t=&quot;currentScript&quot;in document?document.currentScript:function(){for(var t=document.getElementsByTagName(&quot;script&quot;),e=t.length;e--;)if(t[e].getAttribute(&quot;cf-hash&quot;))return t[e]}();if(t&amp;&amp;t.previousSibling){var e,r,n,i,c=t.previousSibling,a=c.getAttribute(&quot;data-cfemail&quot;);if(a){for(e=&quot;&quot;,r=parseInt(a.substr(0,2),16),n=2;a.length-n;n+=2)i=parseInt(a.substr(n,2),16)^r,e+=String.fromCharCode(i);e=document.createTextNode(e),c.parentNode.replaceChild(e,c)}}}catch(u){}}();/* ]]&gt; */&lt;/script&gt;[/center]","torrent":{"xt":"urn:btih:14408b670922ac41822bd1d75f84443ab2a0ce27","amp;dn":"Selma.2014.DVDScr.XVID.AC3.HQ.Hive-CM8","amp;tr":["udp%3A%2F%2Ftracker.openbittorrent.com%3A80","udp%3A%2F%2Fopen.demonii.com%3A1337","udp%3A%2F%2Ftracker.coppersurfer.tk%3A6969","udp%3A%2F%2Fexodus.desync.com%3A6969"],"infoHash":"14408b670922ac41822bd1d75f84443ab2a0ce27","infoHashBuffer":{"type":"Buffer","data":[20,64,139,103,9,34,172,65,130,43,209,215,95,132,68,58,178,160,206,39]},"announce":[],"urlList":[]}}